<svg xmlns="http://www.w3.org/2000/svg" width="128" height="128.2" viewBox="0 0 128 128.2">
  <title>icon</title>
  <rect width="128" height="128" style="fill: #106f99"/>
  <polygon points="0 128 94.4 128.2 107 115.6 107.6 38 84 13 24 13 0 37 0 128" style="fill: #045572"/>
  <g>
    <path d="M18.7,64.5V26.8a19,19,0,0,1,6.7-15A18.4,18.4,0,0,1,37.8,7H76.1a12.6,12.6,0,0,1,9.3,4L108,33.6a13.6,13.6,0,0,1,4,9.9v58.8c-.1,8.1-3.9,14.1-11.1,17.8A16.5,16.5,0,0,1,93,122H37.7c-7.9-.1-13.6-4.1-17.1-11.1a18.3,18.3,0,0,1-1.9-8.6V64.5Zm6.4,0v37.9a12.6,12.6,0,0,0,2.3,7.5,12.1,12.1,0,0,0,9.4,5.5c2.2.2,4.4.2,6.6.2H92a12.4,12.4,0,0,0,6.6-1.6,12.9,12.9,0,0,0,6.9-12.2V43.7a8.3,8.3,0,0,0-2.4-6L81.5,16.2a8.7,8.7,0,0,0-6.6-2.8H38.4a14,14,0,0,0-4.1.6,13,13,0,0,0-9.2,12.3V64.5Z" style="fill: #fff"/>
    <g>
      <path d="M73.5,77.7v9.2H84.2V76.3H78.9a10.9,10.9,0,0,0-5.4,1.4" style="fill: #fff"/>
      <path d="M73.5,65.6v.7a23.5,23.5,0,0,1,5.4-.7h5.3A10.6,10.6,0,0,1,94.9,55V44.3A21.4,21.4,0,0,0,73.5,65.6" style="fill: #fff"/>
      <path d="M46.9,65.6H36.2V86.9H46.9V76.3A10.7,10.7,0,0,1,57.6,86.9a21.4,21.4,0,0,1,5.3-14.1,21.3,21.3,0,0,0-16-7.2" style="fill: #fff"/>
      <path d="M62.9,72.8a21.4,21.4,0,0,1,5.3,14.1,10.9,10.9,0,0,1,5.3-9.2V66.3a22.1,22.1,0,0,0-10.6,6.5" style="fill: #fff"/>
      <path d="M84.2,76.3h5.3V65.6H84.2V76.3" style="fill: #fff"/>
      <path d="M73.5,66.3V77.7a10.9,10.9,0,0,1,5.4-1.4h5.3V65.6H78.9a23.5,23.5,0,0,0-5.4.7" style="fill: #fff"/>
      <path d="M57.6,86.9H68.2a21.4,21.4,0,0,0-5.3-14.1,21.4,21.4,0,0,0-5.3,14.1" style="fill: #fff"/>
    </g>
  </g>
</svg>
